# xmcd CD database file
#
# Track frame offsets:
#	150
#	14499
#	26525
#	44507
#	52581
#	68204
#	81021
#	94296
#	107422
#	120313
#
# Disc length: 1800 seconds
#
# Revision: 2
# Processed by: cddbd v1.5.2PL0 Copyright (c) Steve Scherf et al.
# Submitted via: CDex 1.91
#
DISCID=7207060a
DTITLE=Billie Holiday - American Legends
DYEAR=1900
DGENRE=Jazz
TTITLE0=As Time Goes By
TTITLE1=Billie's Blues
TTITLE2=God Bless The Child
TTITLE3=Swing Brother Swing
TTITLE4=You Turned The Tables On Me
TTITLE5=Why Was I Born (with Teddy Wilson)
TTITLE6=You Go To My Head
TTITLE7=For All We Know
TTITLE8=Did I Remember
TTITLE9=Travelin' Light
EXTD=
EXTT0=
EXTT1=
EXTT2=
EXTT3=
EXTT4=
EXTT5=
EXTT6=
EXTT7=
EXTT8=
EXTT9=
PLAYORDER=
